<svg id="Capa_1" data-name="Capa 1" xmlns="http://www.w3.org/2000/svg" viewBox="0 0 290.24 78.77"><defs><style>.cls-1,.cls-5{fill:#ef9227;}.cls-10,.cls-2,.cls-8{fill:#263b73;}.cls-3,.cls-4{fill:#9b2966;}.cls-4,.cls-5{font-size:17.08px;font-family:Montserrat-Bold, Montserrat;font-weight:700;}.cls-6{letter-spacing:-0.01em;}.cls-7{letter-spacing:0em;}.cls-8{font-size:20.22px;font-family:Montserrat-Regular, Montserrat;}.cls-9{letter-spacing:-0.01em;}.cls-10{font-size:32.15px;font-family:Montserrat-Medium, Montserrat;font-weight:500;letter-spacing:-0.01em;}.cls-11{letter-spacing:0em;}</style></defs><path class="cls-1" d="M47.53,67.71a1.63,1.63,0,0,1-3.25.31A14.23,14.23,0,0,0,30.15,55.28a17.46,17.46,0,0,1-5.77-33.94.94.94,0,0,0,.56-.65V14.34h3.38v9c-.27.23-.44.43-.67.47A14.21,14.21,0,0,0,30.15,52a17.28,17.28,0,0,1,7.36,1.63,17.5,17.5,0,0,1,10,14"/><path class="cls-1" d="M30,30v2.53H22.69a1.33,1.33,0,0,1-1.36-1.37A1.27,1.27,0,0,1,22.59,30Z"/><path class="cls-1" d="M39,45.62a1.28,1.28,0,0,1-1.27,1.27H30V44.35H37.7A1.27,1.27,0,0,1,39,45.62"/><path class="cls-1" d="M30,60.41V63H22.69a1.33,1.33,0,0,1-1.36-1.38,1.25,1.25,0,0,1,.37-.78,1.22,1.22,0,0,1,.89-.38Z"/><path class="cls-2" d="M39,31.24a1.26,1.26,0,0,1-.38.9,1.25,1.25,0,0,1-.89.37H30V30H37.7A1.26,1.26,0,0,1,39,31.24"/><path class="cls-2" d="M38.89,12.22H21.33a1.75,1.75,0,0,1-1.77-1.54,1.69,1.69,0,0,1,1.68-1.84H39a1.75,1.75,0,0,1,1.78,1.54,1.7,1.7,0,0,1-1.69,1.84"/><path class="cls-3" d="M30,44.35v2.54H22.69a1.33,1.33,0,0,1-1.36-1.38,1.27,1.27,0,0,1,.37-.79,1.25,1.25,0,0,1,.89-.37Z"/><path class="cls-3" d="M42.15,38.43a1.28,1.28,0,0,1-1.27,1.27H30V37.16H40.88a1.27,1.27,0,0,1,1.27,1.27"/><path class="cls-2" d="M30,37.16V39.7H19.49a1.32,1.32,0,0,1-1.34-1.17,1.21,1.21,0,0,1,.37-1,1.26,1.26,0,0,1,.89-.38Z"/><path class="cls-2" d="M39,61.68a1.28,1.28,0,0,1-.38.9,1.25,1.25,0,0,1-.89.37H30V60.41H37.7A1.27,1.27,0,0,1,39,61.68"/><path class="cls-3" d="M42.15,68a1.28,1.28,0,0,1-1.27,1.27H30V66.75H40.88A1.27,1.27,0,0,1,42.15,68"/><path class="cls-2" d="M30,66.75v2.54H19.49a1.32,1.32,0,0,1-1.34-1.17,1.22,1.22,0,0,1,.37-1,1.26,1.26,0,0,1,.89-.38Z"/><path class="cls-2" d="M48.51,37.92A17.31,17.31,0,0,1,39.37,53a20,20,0,0,0-4.64-1.57A14.31,14.31,0,0,0,45.06,37.92c0-7.15-5.6-13.08-12.87-14.07a.55.55,0,0,1-.49-.53v-9h3.39v6.15a.86.86,0,0,0,.63.81A17.61,17.61,0,0,1,48.51,37.92"/><path class="cls-2" d="M21.19,54.52a17.44,17.44,0,0,0-8.41,13.19,1.63,1.63,0,0,0,1.62,1.78,1.65,1.65,0,0,0,1.1-.42A1.61,1.61,0,0,0,16,68a14.24,14.24,0,0,1,9.34-11.9,20.4,20.4,0,0,1-4.17-1.6"/><polygon class="cls-1" points="68.9 31.25 68.9 27.44 74.4 27.44 74.4 11.8 68.9 11.8 68.9 8.42 83.28 8.42 83.28 11.8 78.2 11.8 78.2 27.44 83.28 27.44 83.28 31.25 68.9 31.25"/><text class="cls-4" transform="translate(68.15 70.09)">CIENCIAS</text><text class="cls-5" transform="translate(158.48 70.09)">BIOMÉDI<tspan class="cls-6" x="80.57" y="0">C</tspan><tspan class="cls-7" x="92.87" y="0">AS</tspan></text><text class="cls-8" transform="translate(66.85 51.96)">INTERN<tspan class="cls-9" x="78.73" y="0">A</tspan><tspan x="93.04" y="0">CIONAL EN</tspan></text><text class="cls-10" transform="translate(84.53 30.98)">C<tspan class="cls-11" x="22.79" y="0">ONGRESO</tspan></text></svg>